<svg width="143" height="91" viewBox="0 0 143 91" fill="none" xmlns="http://www.w3.org/2000/svg">
<path d="M63.404 51.8523L45.7997 86.4482V88.3773H81.9011V86.4482L65.545 51.8523H63.404Z" fill="#333333"/>
<path d="M132.8 19.2763C138.126 19.2763 142.439 14.9565 142.439 9.63813C142.439 4.31976 138.119 0 132.8 0C127.482 0 123.162 4.31976 123.162 9.63813C123.162 14.9565 127.482 19.2763 132.8 19.2763Z" fill="#333333"/>
<path d="M117.126 20.8575C111.8 20.8575 107.487 25.1772 107.487 30.4956C107.487 35.814 111.807 40.1337 117.126 40.1337C122.444 40.1337 126.764 35.814 126.764 30.4956C126.764 25.1772 122.444 20.8575 117.126 20.8575Z" fill="#333333"/>
<path d="M29.6634 49.4011C24.3375 49.4011 20.0253 53.7208 20.0253 59.0392C20.0253 64.3576 24.345 68.6773 29.6634 68.6773C34.9818 68.6773 39.3015 64.3576 39.3015 59.0392C39.3015 53.7208 34.9818 49.4011 29.6634 49.4011Z" fill="#333333"/>
<path d="M29.996 71.4992C24.6701 71.4992 20.3579 75.819 20.3579 81.1374C20.3579 86.4557 24.6777 90.7755 29.996 90.7755C35.3144 90.7755 39.6342 86.4557 39.6342 81.1374C39.6342 75.819 35.3144 71.4992 29.996 71.4992Z" fill="#333333"/>
<path d="M100.655 39.7629L100.572 31.3352V0.968323H89.0126V31.3428L89.0731 39.7629H100.655Z" fill="#333333"/>
<path d="M2.78448 51.8144V82.1889L2.84501 90.609H14.4274L14.3442 82.1813V51.8144H2.78448Z" fill="#333333"/>
<path d="M91.4711 90.7452H99.3466H100.776H100.784L106.223 80.0252H106.201L119.674 53.4182V51.4891H83.5654V53.4182L96.5171 80.8044L91.4711 90.7452Z" fill="#333333"/>
<path d="M18.9131 40.4211C29.3305 40.4211 37.8263 31.9254 37.8263 21.508C37.8263 11.0907 29.3305 2.60245 18.9131 2.60245C8.49578 2.60245 0 11.0907 0 21.5156C0 31.9405 8.49578 40.4287 18.9131 40.4287V40.4211Z" fill="#333333"/>
<path d="M56.7925 25.9336V31.1612L56.853 39.5814H68.4354L68.3522 31.1537V25.9336H82.0075V14.3739H68.3522V0.794312H56.7925V14.3739H51.633L43.2129 14.4345V26.0169L51.6406 25.9336H56.7925Z" fill="#333333"/>
</svg>
